HIERARCHY
ROOT hip
{
  OFFSET 0 0 0
  CHANNELS 6 Xposition Yposition Zposition Zrotation Yrotation Xrotation
  JOINT abdomen
  {
    OFFSET 0 20.6881 -0.73152
    CHANNELS 3 Zrotation Xrotation Yrotation
    JOINT chest
    {
      OFFSET 0 11.7043 -0.48768
      CHANNELS 3 Zrotation Xrotation Yrotation
      JOINT neck
      {
        OFFSET 0 22.1894 -2.19456
        CHANNELS 3 Zrotation Xrotation Yrotation
        JOINT head
        {
          OFFSET -0.24384 7.07133 1.2192
          CHANNELS 3 Zrotation Xrotation Yrotation
          JOINT leftEye
          {
            OFFSET 4.14528 8.04674 8.04672
            CHANNELS 3 Zrotation Xrotation Yrotation
            End Site
            {
              OFFSET 1 0 0
            }
          }
          JOINT rightEye
          {
            OFFSET -3.6576 8.04674 8.04672
            CHANNELS 3 Zrotation Xrotation Yrotation
            End Site
            {
              OFFSET 1 0 0
            }
          }
        }
      }
      JOINT rCollar
      {
        OFFSET -2.68224 19.2634 -4.8768
        CHANNELS 3 Zrotation Xrotation Yrotation
        JOINT rShldr
        {
          OFFSET -8.77824 -1.95073 1.46304
          CHANNELS 3 Zrotation Xrotation Yrotation
          JOINT rForeArm
          {
            OFFSET -28.1742 -1.7115 0.48768
            CHANNELS 3 Zrotation Xrotation Yrotation
            JOINT rHand
            {
              OFFSET -22.5879 0.773209 7.07136
              CHANNELS 3 Zrotation Xrotation Yrotation
              JOINT rThumb1
              {
                OFFSET -1.2192 -0.487915 3.41376
                CHANNELS 3 Zrotation Xrotation Yrotation
                JOINT rThumb2
                {
                  OFFSET -3.37035 -0.52449 3.41376
                  CHANNELS 3 Zrotation Xrotation Yrotation
                  End Site
                  {
                    OFFSET -1.78271 -1.18214 1.43049
                  }
                }
              }
              JOINT rIndex1
              {
                OFFSET -7.75947 0.938293 5.60832
                CHANNELS 3 Zrotation Xrotation Yrotation
                JOINT rIndex2
                {
                  OFFSET -2.54057 -0.884171 1.56538
                  CHANNELS 3 Zrotation Xrotation Yrotation
                  End Site
                  {
                    OFFSET -1.62519 -0.234802 1.16502
                  }
                }
              }
              JOINT rMid1
              {
                OFFSET -8.24714 1.18213 3.41376
                CHANNELS 3 Zrotation Xrotation Yrotation
                JOINT rMid2
                {
                  OFFSET -3.10165 -0.590103 1.0647
                  CHANNELS 3 Zrotation Xrotation Yrotation
                  End Site
                  {
                    OFFSET -2.48547 -0.328903 0.83742
                  }
                }
              }
              JOINT rRing1
              {
                OFFSET -8.82822 0.546677 1.51678
                CHANNELS 3 Zrotation Xrotation Yrotation
                JOINT rRing2
                {
                  OFFSET -2.60934 -0.819778 -0.0198488
                  CHANNELS 3 Zrotation Xrotation Yrotation
                  End Site
                  {
                    OFFSET -2.33842 -0.294052 0.168128
                  }
                }
              }
              JOINT rPinky1
              {
                OFFSET -8.27202 -0.0477905 -0.4584
                CHANNELS 3 Zrotation Xrotation Yrotation
                JOINT rPinky2
                {
                  OFFSET -1.82734 -0.647385 -0.700984
                  CHANNELS 3 Zrotation Xrotation Yrotation
                  End Site
                  {
                    OFFSET -1.69225 -0.51767 -0.607171
                  }
                }
              }
            }
          }
        }
      }
      JOINT lCollar
      {
        OFFSET 2.68224 19.2634 -4.8768
        CHANNELS 3 Zrotation Xrotation Yrotation
        JOINT lShldr
        {
          OFFSET 8.77824 -1.95073 1.46304
          CHANNELS 3 Zrotation Xrotation Yrotation
          JOINT lForeArm
          {
            OFFSET 28.1742 -1.7115 0.48768
            CHANNELS 3 Zrotation Xrotation Yrotation
            JOINT lHand
            {
              OFFSET 22.5879 0.773209 7.07136
              CHANNELS 3 Zrotation Xrotation Yrotation
              JOINT lThumb1
              {
                OFFSET 1.2192 -0.487915 3.41376
                CHANNELS 3 Zrotation Xrotation Yrotation
                JOINT lThumb2
                {
                  OFFSET 3.37035 -0.52449 3.41376
                  CHANNELS 3 Zrotation Xrotation Yrotation
                  End Site
                  {
                    OFFSET 1.78271 -1.18214 1.43049
                  }
                }
              }
              JOINT lIndex1
              {
                OFFSET 7.75947 0.938293 5.60832
                CHANNELS 3 Zrotation Xrotation Yrotation
                JOINT lIndex2
                {
                  OFFSET 2.54057 -0.884171 1.56538
                  CHANNELS 3 Zrotation Xrotation Yrotation
                  End Site
                  {
                    OFFSET 1.62519 -0.234802 1.16502
                  }
                }
              }
              JOINT lMid1
              {
                OFFSET 8.24714 1.18213 3.41376
                CHANNELS 3 Zrotation Xrotation Yrotation
                JOINT lMid2
                {
                  OFFSET 3.10165 -0.590103 1.0647
                  CHANNELS 3 Zrotation Xrotation Yrotation
                  End Site
                  {
                    OFFSET 2.48547 -0.328903 0.83742
                  }
                }
              }
              JOINT lRing1
              {
                OFFSET 8.82822 0.546677 1.51678
                CHANNELS 3 Zrotation Xrotation Yrotation
                JOINT lRing2
                {
                  OFFSET 2.60934 -0.819778 -0.0198488
                  CHANNELS 3 Zrotation Xrotation Yrotation
                  End Site
                  {
                    OFFSET 2.33842 -0.294052 0.168128
                  }
                }
              }
              JOINT lPinky1
              {
                OFFSET 8.27202 -0.0477905 -0.4584
                CHANNELS 3 Zrotation Xrotation Yrotation
                JOINT lPinky2
                {
                  OFFSET 1.82734 -0.647385 -0.700984
                  CHANNELS 3 Zrotation Xrotation Yrotation
                  End Site
                  {
                    OFFSET 1.69225 -0.51767 -0.607171
                  }
                }
              }
            }
          }
        }
      }
    }
  }
  JOINT rButtock
  {
    OFFSET -8.77824 4.35084 1.2192
    CHANNELS 3 Zrotation Xrotation Yrotation
    JOINT rThigh
    {
      OFFSET 0 -1.70687 -2.19456
      CHANNELS 3 Zrotation Xrotation Yrotation
      JOINT rShin
      {
        OFFSET 0 -36.8199 0.73152
        CHANNELS 3 Zrotation Xrotation Yrotation
        JOINT rFoot
        {
          OFFSET 0.73152 -45.1104 -5.12064
          CHANNELS 3 Zrotation Xrotation Yrotation
          End Site
          {
            OFFSET -1.1221 -3.69964 12.103
          }
        }
      }
    }
  }
  JOINT lButtock
  {
    OFFSET 8.77824 4.35084 1.2192
    CHANNELS 3 Zrotation Xrotation Yrotation
    JOINT lThigh
    {
      OFFSET 0 -1.70687 -2.19456
      CHANNELS 3 Zrotation Xrotation Yrotation
      JOINT lShin
      {
        OFFSET 0 -36.8199 0.73152
        CHANNELS 3 Zrotation Xrotation Yrotation
        JOINT lFoot
        {
          OFFSET -0.73152 -45.1104 -5.12064
          CHANNELS 3 Zrotation Xrotation Yrotation
          End Site
          {
            OFFSET 1.1221 -3.69964 12.103
          }
        }
      }
    }
  }
}
MOTION
Frames:	4
Frame Time:	0.00833333
-8.20346 81.4068 118.751 185.028 -0.3571 -165.822 -10.1533 -17.9253 -6.78994 4.61303 14.1356 -1.86243 1.06933 15.7862 -6.26623 8.20859 -11.3589 -9.46728 -0.0 0.0 0.0 -0.0 0.0 0.0 7.04507e-14 2.10458e-13 2.33634e-14 86.0354 11.9642 -10.4251 -16.0 -8.68753 29.6723 -0.0131166 -3.26744 -0.459712 -1.55039e-11 1.27854e-10 -1.1708e-09 -2.37827e-11 2.16276e-10 -2.02581e-09 -1.55028e-11 1.27856e-10 -1.17082e-09 7.73091 5.47488 0.417314 -1.55056e-11 1.27854e-10 -1.17081e-09 2.90554 0.965183 0.102902 -1.54988e-11 1.27854e-10 -1.17081e-09 10.2786 0.731801 0.0259123 -1.55099e-11 1.27855e-10 -1.1708e-09 2.22167 -0.733487 -0.20892 7.04099e-14 2.10468e-13 2.31611e-14 -73.876 20.7174 -0.290303 11.8468 -5.3418 -21.3135 0.0117568 3.10397 -0.436662 -3.87938e-10 1.04924e-09 9.28787e-10 -6.6509e-10 1.81813e-09 1.60447e-09 -3.87944e-10 1.04924e-09 9.28796e-10 -7.73091 5.47488 -0.417314 -3.87938e-10 1.04924e-09 9.28785e-10 -2.90554 0.965183 -0.102902 -3.87947e-10 1.04924e-09 9.28784e-10 -10.2786 0.731801 -0.0259123 -3.87938e-10 1.04925e-09 9.28788e-10 -2.22167 -0.733487 0.20892 -2.03217e-16 0.0 -3.88251e-19 -47.1476 -78.9123 -55.735 -2.69734 73.8955 3.3476 -1.4197 -15.0731 -2.32483 2.03217e-16 0.0 3.88251e-19 -2.81992 -18.4145 -10.5015 -0.116445 21.9856 -1.18492 2.27868 -13.965 5.23757
-8.05408 81.4462 118.512 185.532 -0.6693 -166.086 -9.93195 -17.9572 -6.786 4.63328 14.1184 -1.8767 1.14504 15.9253 -6.35786 8.2281 -11.3325 -9.60547 -0.0 0.0 0.0 -0.0 0.0 0.0 1.46624e-13 3.9279e-13 4.86029e-14 86.0729 11.8069 -10.5372 -15.9137 -8.60741 29.4909 -0.0120375 -3.1309 -0.440462 -6.58846e-10 8.38223e-10 -1.87269e-09 -1.1348e-09 1.44294e-09 -3.24073e-09 -6.58844e-10 8.38226e-10 -1.87271e-09 7.73091 5.47488 0.417314 -6.58848e-10 8.38223e-10 -1.8727e-09 2.90554 0.965183 0.102902 -6.5884e-10 8.38223e-10 -1.87269e-09 10.2786 0.731801 0.0259123 -6.58851e-10 8.38224e-10 -1.87269e-09 2.22167 -0.733487 -0.20892 1.46593e-13 3.92807e-13 4.84041e-14 -73.8456 20.8274 -0.165709 11.9116 -5.3868 -21.4389 0.0109662 2.9885 -0.420392 -1.29569e-09 1.12138e-09 1.83178e-09 -2.22909e-09 1.94535e-09 3.16904e-09 -1.29569e-09 1.12138e-09 1.83179e-09 -7.73091 5.47488 -0.417314 -1.29569e-09 1.12138e-09 1.83178e-09 -2.90554 0.965183 -0.102902 -1.29569e-09 1.12138e-09 1.83178e-09 -10.2786 0.731801 -0.0259123 -1.29569e-09 1.12139e-09 1.83178e-09 -2.22167 -0.733487 0.20892 -2.03217e-16 0.0 -3.88251e-19 -46.8772 -78.7354 -55.0007 -2.37977 72.3396 3.02093 -1.43334 -14.6185 -2.44838 2.03217e-16 0.0 3.88251e-19 -2.38785 -18.123 -10.6307 -0.111064 21.9958 -1.18251 2.24207 -14.0768 5.13919
-7.98748 81.4737 118.241 185.587 -0.9124 -166.269 -9.80936 -17.9868 -6.81634 4.67653 14.063 -1.90543 1.12238 15.8955 -6.31991 8.3052 -10.9288 -9.48264 -0.0 0.0 0.0 -0.0 0.0 0.0 1.61967e-13 4.53837e-13 5.32029e-14 86.1218 11.6371 -10.682 -15.8407 -8.53998 29.3377 -0.0109497 -2.98734 -0.420227 -9.04611e-10 1.21361e-09 -2.29303e-09 -1.5598e-09 2.09142e-09 -3.96836e-09 -9.04604e-10 1.21361e-09 -2.29305e-09 7.73091 5.47488 0.417314 -9.04613e-10 1.21361e-09 -2.29304e-09 2.90554 0.965183 0.102902 -9.04606e-10 1.21361e-09 -2.29303e-09 10.2786 0.731801 0.0259123 -9.04616e-10 1.21361e-09 -2.29303e-09 2.22167 -0.733487 -0.20892 1.61954e-13 4.53851e-13 5.30153e-14 -73.8497 20.8354 -0.00913885 11.9609 -5.42105 -21.5344 0.0111431 3.00789 -0.423126 -1.51369e-09 1.35998e-09 2.43859e-09 -2.60273e-09 2.35958e-09 4.21955e-09 -1.51369e-09 1.35998e-09 2.4386e-09 -7.73091 5.47488 -0.417314 -1.51369e-09 1.35998e-09 2.43859e-09 -2.90554 0.965183 -0.102902 -1.5137e-09 1.35998e-09 2.43859e-09 -10.2786 0.731801 -0.0259123 -1.51369e-09 1.35999e-09 2.43859e-09 -2.22167 -0.733487 0.20892 -2.03217e-16 0.0 -3.88251e-19 -46.598 -78.5118 -54.1595 -2.1071 70.7449 2.74304 -1.48468 -14.4166 -2.65968 2.03217e-16 0.0 3.88251e-19 -2.02006 -17.8523 -10.7343 -0.105531 22.01 -1.18 2.19507 -14.2005 5.00565
-7.85732 81.5096 117.967 185.837 -1.1652 -166.48 -9.75937 -18.0196 -6.87448 4.73803 13.9768 -1.94517 1.03372 15.7564 -6.19579 8.41261 -10.2688 -9.18724 -0.0 0.0 0.0 -0.0 0.0 0.0 1.43709e-13 4.5427e-13 4.65902e-14 86.1755 11.4595 -10.855 -15.7782 -8.48269 29.2061 -0.00989584 -2.84284 -0.399866 -9.41228e-10 1.44696e-09 -2.59739e-09 -1.624e-09 2.49478e-09 -4.49526e-09 -9.41213e-10 1.44696e-09 -2.59741e-09 7.73091 5.47488 0.417314 -9.4123e-10 1.44696e-09 -2.5974e-09 2.90554 0.965183 0.102902 -9.41222e-10 1.44696e-09 -2.5974e-09 10.2786 0.731801 0.0259123 -9.41231e-10 1.44696e-09 -2.5974e-09 2.22167 -0.733487 -0.20892 1.43719e-13 4.54276e-13 4.64193e-14 -73.8801 20.7712 0.174837 11.9964 -5.446 -21.6031 0.0119897 3.12043 -0.438988 -1.35365e-09 1.72539e-09 2.96738e-09 -2.32352e-09 2.9928e-09 5.13416e-09 -1.35365e-09 1.7254e-09 2.96739e-09 -7.73091 5.47488 -0.417314 -1.35365e-09 1.7254e-09 2.96738e-09 -2.90554 0.965183 -0.102902 -1.35366e-09 1.7254e-09 2.96738e-09 -10.2786 0.731801 -0.0259123 -1.35366e-09 1.7254e-09 2.96737e-09 -2.22167 -0.733487 0.20892 -2.03217e-16 0.0 -3.88251e-19 -46.272 -78.2369 -53.1889 -1.86875 69.0927 2.50106 -1.55769 -14.3808 -2.92126 2.03217e-16 0.0 3.88251e-19 -1.70215 -17.6025 -10.8274 -0.0996272 22.0297 -1.1765 2.13794 -14.337 4.83782
